<?xml version="1.0" standalone="no"?><!-- Generator: Gravit.io --><svg xmlns="http://www.w3.org/2000/svg" xmlns:xlink="http://www.w3.org/1999/xlink" style="isolation:isolate" viewBox="0 0 345 295" width="345" height="295"><defs><clipPath id="_clipPath_7KTtvyPkA4fDOnBzYXGTvVH6pSso3mip"><rect width="345" height="295"/></clipPath></defs><g clip-path="url(#_clipPath_7KTtvyPkA4fDOnBzYXGTvVH6pSso3mip)"><path d="M 11.8 0 L 333.2 0 C 339.713 0 345 5.287 345 11.8 L 345 283.2 C 345 289.713 339.713 295 333.2 295 L 11.8 295 C 5.287 295 0 289.713 0 283.2 L 0 11.8 C 0 5.287 5.287 0 11.8 0 Z" style="stroke:none;fill:#FFFFFF;stroke-miterlimit:10;"/><g id="Group"><g id="out"><rect x="55.5" y="68.5" width="234" height="70" transform="matrix(-1,0,0,-1,345,207)" fill="none" vector-effect="non-scaling-stroke" stroke-width="4" stroke-dasharray="14,19" stroke="rgb(255,62,0)" stroke-opacity="100" stroke-linejoin="round" stroke-linecap="round" stroke-miterlimit="3"/><rect x="55.5" y="156.5" width="234" height="70" transform="matrix(1,0,0,1,0,0)" fill="none" vector-effect="non-scaling-stroke" stroke-width="4" stroke-dasharray="14,19" stroke="rgb(255,62,0)" stroke-opacity="100" stroke-linejoin="round" stroke-linecap="round" stroke-miterlimit="3"/></g><g id="in"><clipPath id="_clipPath_84MZcq2bt5cDGhauG1SaSyCpRoHaqgE0"><rect x="23.658" y="100.85" width="297.842" height="94.929" transform="matrix(1,0,0,1,0,0)" fill="rgb(255,255,255)"/></clipPath><g clip-path="url(#_clipPath_84MZcq2bt5cDGhauG1SaSyCpRoHaqgE0)"><g id="Group"><rect x="55.5" y="68.5" width="234" height="70" transform="matrix(1,0,0,1,0,0)" fill="none" vector-effect="non-scaling-stroke" stroke-width="7" stroke="rgb(255,62,0)" stroke-opacity="100" stroke-linejoin="round" stroke-linecap="square" stroke-miterlimit="3"/><rect x="55.5" y="157" width="234" height="70" transform="matrix(1,0,0,1,0,0)" fill="none" vector-effect="non-scaling-stroke" stroke-width="7" stroke="rgb(255,62,0)" stroke-opacity="100" stroke-linejoin="round" stroke-linecap="square" stroke-miterlimit="3"/><line x1="27" y1="104.5" x2="318" y2="104.5" vector-effect="non-scaling-stroke" stroke-width="6" stroke="rgb(255,62,0)" stroke-opacity="100" stroke-linejoin="miter" stroke-linecap="round" stroke-miterlimit="3"/><line x1="27" y1="193" x2="318" y2="193" vector-effect="non-scaling-stroke" stroke-width="6" stroke="rgb(255,62,0)" stroke-opacity="100" stroke-linejoin="miter" stroke-linecap="round" stroke-miterlimit="3"/></g></g></g><g id="above"><path d=" M 119.807 148.617 C 119.807 126.89 143.418 109.251 172.5 109.251 C 201.582 109.251 225.193 126.89 225.193 148.617 C 225.193 170.344 201.582 187.983 172.5 187.983 C 143.418 187.983 119.807 170.344 119.807 148.617 Z " fill="rgb(255,255,255)"/><path d=" M 132.255 148.456 C 134.731 141.341 150.288 122.682 172.5 122.682 C 194.712 122.682 207.401 141.341 212.745 148.456 C 206.932 156.268 194.712 171.195 172.5 171.195 C 150.288 171.195 136.606 154.195 132.255 148.456 Z " fill="none" vector-effect="non-scaling-stroke" stroke-width="6" stroke="rgb(255,62,0)" stroke-opacity="100" stroke-linejoin="miter" stroke-linecap="square" stroke-miterlimit="3"/><path d=" M 160.206 149.135 C 160.206 142.35 165.715 136.841 172.5 136.841 C 179.285 136.841 184.794 142.35 184.794 149.135 C 184.794 155.921 179.285 161.43 172.5 161.43 C 165.715 161.43 160.206 155.921 160.206 149.135 Z " fill="rgb(255,62,0)"/><path d=" M 176.206 140.135 C 176.206 136.11 179.474 132.841 183.5 132.841 C 187.526 132.841 190.794 136.11 190.794 140.135 C 190.794 144.161 187.526 147.43 183.5 147.43 C 179.474 147.43 176.206 144.161 176.206 140.135 Z " fill="rgb(255,255,255)"/></g></g></g></svg>